<svg width="24" height="25" viewBox="0 0 24 25" fill="none" xmlns="http://www.w3.org/2000/svg">
<g id="icon/pin">
<path id="Vector" d="M12 2C9.81273 2.00248 7.71575 2.87247 6.16911 4.41911C4.62247 5.96575 3.75248 8.06273 3.75 10.25C3.75 17.3094 11.25 22.6409 11.5697 22.8641C11.6958 22.9524 11.846 22.9998 12 22.9998C12.154 22.9998 12.3042 22.9524 12.4303 22.8641C12.75 22.6409 20.25 17.3094 20.25 10.25C20.2475 8.06273 19.3775 5.96575 17.8309 4.41911C16.2843 2.87247 14.1873 2.00248 12 2ZM12 7.25C12.5933 7.25 13.1734 7.42595 13.6667 7.75559C14.1601 8.08524 14.5446 8.55377 14.7716 9.10195C14.9987 9.65013 15.0581 10.2533 14.9424 10.8353C14.8266 11.4172 14.5409 11.9518 14.1213 12.3713C13.7018 12.7909 13.1672 13.0766 12.5853 13.1924C12.0033 13.3081 11.4001 13.2487 10.8519 13.0216C10.3038 12.7946 9.83524 12.4101 9.50559 11.9167C9.17595 11.4234 9 10.8433 9 10.25C9 9.45435 9.31607 8.69129 9.87868 8.12868C10.4413 7.56607 11.2044 7.25 12 7.25Z" fill="#005581"/>
</g>
</svg>
